<svg width="20" height="20" xmlns="http://www.w3.org/2000/svg">
 <!-- Generator: Sketch 52.5 (67469) - http://www.bohemiancoding.com/sketch -->

 <title>g_translate</title>
 <desc>Created with Sketch.</desc>
 <g>
  <title>background</title>
  <rect fill="none" id="canvas_background" height="22" width="22" y="-1" x="-1"/>
 </g>
 <g>
  <title>Layer 1</title>
  <rect id="svg_2" height="11.88775" width="18.36734" y="3.21429" x="0.63776" stroke-opacity="null" stroke-width="0" stroke="#000" fill="#15aabf"/>
  <rect id="svg_3" height="4.28571" width="8.52041" y="14.84694" x="10.53572" stroke-opacity="null" stroke-width="0" stroke="#000" fill="#15aabf"/>
  <rect id="svg_4" height="0.86735" width="0" y="17.70408" x="14.66837" stroke-opacity="null" stroke-width="0" stroke="#000" fill="#0fffff"/>
  <!-- Generator: Sketch 52.5 (67469) - http://www.bohemiancoding.com/sketch -->
  <desc>Created with Sketch.</desc>
  <g id="svg_22">
   <g transform="matrix(0.996826, 0, 0, 0.996505, 8.41368, 8.12391)" fill-rule="evenodd" fill="none" id="svg_14">
    <g id="svg_15">
     <g id="svg_16">
      <g id="svg_17">
       <g id="svg_21">
        <polygon points="-10.41060733795166,-10.0983208976686 13.58939266204834,-10.0983208976686 13.58939266204834,13.901681009680033 -10.41060733795166,13.901681009680033 " id="svg_19"/>
        <path fill="#1D1D1D" id="svg_18" d="m9.58939,-5.09832l-9.12,0l-0.88,-3l-6,0c-1.1,0 -2,0.9 -2,2l0,13c0,1.1 0.9,2 2,2l7,0l1,3l8,0c1.1,0 2,-0.9 2,-2l0,-13c0,-1.1 -0.9,-2 -2,-2zm-12.83,9.59c-2.25,0 -4.09,-1.83 -4.09,-4.09c0,-2.26 1.83,-4.09 4.09,-4.09c1.04,0 1.99,0.37 2.74,1.07l0.07,0.06l-1.23,1.18l-0.06,-0.05c-0.29,-0.27 -0.78,-0.59 -1.52,-0.59c-1.31,0 -2.38,1.09 -2.38,2.42c0,1.33 1.07,2.42 2.38,2.42c1.37,0 1.96,-0.87 2.12,-1.46l-2.21,0l0,-1.55l3.95,0l0.01,0.07c0.04,0.21 0.05,0.4 0.05,0.61c0,2.35 -1.61,4 -3.92,4zm5.5,-3.51l3.99,0c0,0 -0.34,1.31 -1.56,2.74c-0.52,-0.62 -0.89,-1.23 -1.13,-1.7l-0.99,0l-0.31,-1.04zm1.72,3.5l-0.54,0.53l-0.65,-2.23c0.33,0.6 0.74,1.18 1.19,1.7zm6.61,5.42c0,0.55 -0.45,1 -1,1l-7,0l2,-2l-0.81,-2.77l0.92,-0.92l2.68,2.69l0.73,-0.73l-2.71,-2.68c0.9,-1.03 1.6,-2.25 1.92,-3.51l1.27,0l0,-1.04l-3.64,0l0,-1.04l-1.04,0l0,1.04l-1.96,0l-1.18,-4.04l8.82,0c0.55,0 1,0.45 1,1l0,13z"/>
       </g>
      </g>
     </g>
    </g>
   </g>
  </g>
 </g>
</svg>